<svg width="60" height="54" viewBox="0 0 60 54" fill="none" xmlns="http://www.w3.org/2000/svg">
<path d="M25.0506 32.4588V36.1302L12 30.4734V27.3342L25.0506 21.678V25.3752L15.957 28.8786L25.0506 32.4588Z" fill="white"/>
<path d="M33.12 21.6L29.487 36.558C29.3664 37.0506 29.2608 37.4406 29.1696 37.7256C29.079 38.0112 28.9404 38.235 28.755 38.3928C28.569 38.5536 28.2984 38.6328 27.9438 38.6328C27.0618 38.6328 26.6202 38.2506 26.6202 37.4916C26.6202 37.2924 26.7072 36.7956 26.88 36L30.4998 21.042C30.69 20.2464 30.8712 19.7016 31.044 19.4076C31.2174 19.1136 31.5546 18.9666 32.0568 18.9666C32.4894 18.9666 32.8194 19.0704 33.0486 19.278C33.2778 19.4856 33.3924 19.7712 33.3924 20.1342C33.3924 20.4024 33.3012 20.8908 33.12 21.6Z" fill="white"/>
<path d="M47.9999 30.4734L34.9493 36.156V32.4846L44.0693 28.9044L34.9493 25.3752V21.7296L47.9999 27.36V30.4734Z" fill="white"/>
<path d="M56.4 0.600006H3.6C1.6122 0.600006 0 2.21221 0 4.20001V49.8C0 51.7872 1.6122 53.4 3.6 53.4H56.4C58.3884 53.4 60 51.7872 60 49.8V4.20001C60 2.21161 58.3884 0.600006 56.4 0.600006ZM47.4 3.00001C48.723 3.00001 49.8 4.07641 49.8 5.40001C49.8 6.72361 48.723 7.80001 47.4 7.80001C46.077 7.80001 45 6.72361 45 5.40001C45 4.07641 46.077 3.00001 47.4 3.00001ZM40.8 3.00001C42.123 3.00001 43.2 4.07641 43.2 5.40001C43.2 6.72361 42.123 7.80001 40.8 7.80001C39.477 7.80001 38.4 6.72361 38.4 5.40001C38.4 4.07641 39.477 3.00001 40.8 3.00001ZM56.4 49.8H3.6V10.2H56.4V49.8ZM54 7.80001C52.677 7.80001 51.6 6.72361 51.6 5.40001C51.6 4.07641 52.677 3.00001 54 3.00001C55.323 3.00001 56.4 4.07641 56.4 5.40001C56.4 6.72361 55.323 7.80001 54 7.80001Z" fill="white"/>
</svg>
