<svg width="62" height="45" viewBox="0 0 62 45" fill="none" xmlns="http://www.w3.org/2000/svg">
<path d="M1.55577 21.0557L12.5558 10.0557C12.8095 9.7931 13.1129 9.58359 13.4484 9.43947C13.7839 9.29535 14.1448 9.21948 14.5099 9.21631C14.8751 9.21314 15.2372 9.28272 15.5751 9.42099C15.9131 9.55926 16.2202 9.76346 16.4784 10.0217C16.7366 10.2799 16.9408 10.5869 17.079 10.9249C17.2173 11.2628 17.2869 11.625 17.2837 11.9901C17.2805 12.3552 17.2047 12.7161 17.0606 13.0516C16.9164 13.3871 16.7069 13.6906 16.4443 13.9442L7.38852 23L16.4443 32.0557C16.7069 32.3094 16.9164 32.6129 17.0606 32.9484C17.2047 33.2839 17.2805 33.6448 17.2837 34.0099C17.2869 34.375 17.2173 34.7372 17.079 35.0751C16.9408 35.4131 16.7366 35.7201 16.4784 35.9783C16.2202 36.2365 15.9131 36.4407 15.5751 36.579C15.2372 36.7173 14.8751 36.7869 14.5099 36.7837C14.1448 36.7805 13.7839 36.7047 13.4484 36.5605C13.1129 36.4164 12.8095 36.2069 12.5558 35.9443L1.55577 24.9442C1.04023 24.4285 0.75061 23.7292 0.75061 23C0.75061 22.2708 1.04023 21.5714 1.55577 21.0557ZM49.4443 10.0557C49.1906 9.7931 48.8871 9.58359 48.5516 9.43947C48.2161 9.29535 47.8553 9.21948 47.4901 9.21631C47.125 9.21314 46.7629 9.28272 46.4249 9.42099C46.0869 9.55926 45.7799 9.76346 45.5217 10.0217C45.2635 10.2799 45.0593 10.5869 44.921 10.9249C44.7827 11.2628 44.7132 11.625 44.7163 11.9901C44.7195 12.3552 44.7954 12.7161 44.9395 13.0516C45.0836 13.3871 45.2931 13.6906 45.5558 13.9442L54.6115 23L45.5558 32.0557C45.2931 32.3094 45.0836 32.6129 44.9395 32.9484C44.7954 33.2839 44.7195 33.6448 44.7163 34.0099C44.7132 34.375 44.7827 34.7372 44.921 35.0751C45.0593 35.4131 45.2635 35.7201 45.5217 35.9783C45.7799 36.2365 46.0869 36.4407 46.4249 36.579C46.7629 36.7173 47.125 36.7869 47.4901 36.7837C47.8553 36.7805 48.2161 36.7047 48.5516 36.5605C48.8871 36.4164 49.1906 36.2069 49.4443 35.9443L60.4443 24.9442C60.9598 24.4285 61.2494 23.7292 61.2494 23C61.2494 22.2708 60.9598 21.5714 60.4443 21.0557L49.4443 10.0557ZM33.8573 2.9965L22.8573 41.4965C22.657 42.1974 22.7432 42.9491 23.097 43.5865C23.4507 44.2238 24.0431 44.6947 24.7438 44.8955C24.9901 44.9636 25.2444 44.9987 25.5 45C26.0976 44.9996 26.6788 44.8045 27.1557 44.4442C27.6325 44.084 27.979 43.5782 28.1428 43.0035L39.1428 4.5035C39.2574 4.15191 39.3 3.78081 39.2679 3.4124C39.2358 3.04399 39.1298 2.68583 38.9561 2.35935C38.7824 2.03287 38.5446 1.74477 38.2571 1.5123C37.9695 1.27982 37.6379 1.10773 37.2823 1.00633C36.9267 0.904936 36.5542 0.876308 36.1873 0.922162C35.8203 0.968017 35.4664 1.08741 35.1466 1.27321C34.8269 1.459 34.5479 1.70737 34.3264 2.00347C34.1048 2.29957 33.9453 2.63732 33.8573 2.9965Z" fill="white"/>
</svg>
