<svg width="60" height="44" viewBox="0 0 60 44" fill="none" xmlns="http://www.w3.org/2000/svg">
<path d="M55.4962 37.8705C54.7076 37.8705 54.0676 37.2305 54.0676 36.441C54.0676 23.1276 43.2448 12.2971 29.941 12.2971C16.6381 12.2971 5.8143 23.1276 5.8143 36.441C5.8143 37.2305 5.17525 37.8705 4.38572 37.8705C3.59715 37.8705 2.95715 37.2305 2.95715 36.441C2.95715 21.5514 15.0619 9.4381 29.941 9.4381C44.82 9.4381 56.9248 21.5514 56.9248 36.441C56.9248 37.2305 56.2857 37.8705 55.4962 37.8705Z" fill="white"/>
<path d="M25.3077 7.4781H10.0696C9.28099 7.4781 8.64099 6.8381 8.64099 6.04857C8.64099 5.25905 9.28099 4.61905 10.0696 4.61905H25.3077C26.0962 4.61905 26.7362 5.25905 26.7362 6.04857C26.7362 6.8381 26.0962 7.4781 25.3077 7.4781Z" fill="white"/>
<path d="M48.1647 7.4781H33.879C33.0904 7.4781 32.4504 6.8381 32.4504 6.04857C32.4504 5.25905 33.0904 4.61905 33.879 4.61905H48.1647C48.9533 4.61905 49.5933 5.25905 49.5933 6.04857C49.5933 6.8381 48.9533 7.4781 48.1647 7.4781Z" fill="white"/>
<path d="M29.2934 10.8505C26.3876 10.8505 24.0248 8.48571 24.0248 5.57809C24.0248 2.67142 26.3876 0.30571 29.2934 0.30571C32.1981 0.30571 34.561 2.67142 34.561 5.57809C34.561 8.48571 32.1981 10.8505 29.2934 10.8505ZM29.2934 3.16476C27.9629 3.16476 26.8819 4.24761 26.8819 5.57809C26.8819 6.90857 27.9629 7.99142 29.2934 7.99142C30.6219 7.99142 31.7038 6.90857 31.7038 5.57809C31.7038 4.24761 30.6219 3.16476 29.2934 3.16476Z" fill="white"/>
<path d="M60 42.2647C60 43.0543 59.36 43.6943 58.5714 43.6943H52.8572C52.0676 43.6943 51.4286 43.0543 51.4286 42.2647V36.5466C51.4286 35.7571 52.0676 35.1171 52.8572 35.1171H58.5714C59.36 35.1171 60 35.7571 60 36.5466V42.2647ZM54.2857 40.8352H57.1429V37.9762H54.2857V40.8352Z" fill="white"/>
<path d="M57.1428 9.86095C57.1428 10.6505 56.5028 11.2905 55.7143 11.2905H50C49.2105 11.2905 48.5714 10.6505 48.5714 9.86095V3.18952C48.5714 2.39999 49.2105 1.75999 50 1.75999H55.7143C56.5028 1.75999 57.1428 2.39999 57.1428 3.18952V9.86095ZM51.4286 8.43142H54.2857V4.61904H51.4286V8.43142Z" fill="white"/>
<path d="M11.4286 9.86095C11.4286 10.6505 10.7886 11.2905 10 11.2905H4.28575C3.49623 11.2905 2.85718 10.6505 2.85718 9.86095V3.18952C2.85718 2.39999 3.49623 1.75999 4.28575 1.75999H10C10.7886 1.75999 11.4286 2.39999 11.4286 3.18952V9.86095ZM5.71432 8.43142H8.57146V4.61904H5.71432V8.43142Z" fill="white"/>
<path d="M8.57143 42.2647C8.57143 43.0543 7.93143 43.6943 7.14286 43.6943H1.42857C0.639048 43.6943 0 43.0543 0 42.2647V36.5466C0 35.7571 0.639048 35.1171 1.42857 35.1171H7.14286C7.93143 35.1171 8.57143 35.7571 8.57143 36.5466V42.2647ZM2.85714 40.8352H5.71429V37.9762H2.85714V40.8352Z" fill="white"/>
</svg>
